<?xml version="1.0" ?><svg viewBox="0 0 64 64" xmlns="http://www.w3.org/2000/svg"><g data-name="Layer 91" id="Layer_91"><path d="M60.33,25.51,41,8.22a.5.5,0,1,0-.67.75L59.25,25.88,40.33,42.79a.5.5,0,0,0,.34.88.46.46,0,0,0,.33-.13L60.33,26.25a.49.49,0,0,0,0-.74Z"/><path d="M51.31,25.88a.48.48,0,0,0-.17-.37L31.81,8.22A.51.51,0,0,0,31,8.6V18h-.51c-14.87,0-27,14.63-27,32.61a40,40,0,0,0,.3,4.88.5.5,0,0,0,.46.44h0a.5.5,0,0,0,.49-.37c3.5-13,13.41-21.74,24.66-21.74.48,0,1,0,1.53.06v9.32a.49.49,0,0,0,.3.45.51.51,0,0,0,.54-.08L51.14,26.25A.48.48,0,0,0,51.31,25.88ZM32,42.05V33.39a.49.49,0,0,0-.45-.5c-.73-.07-1.43-.1-2.08-.1-11,0-20.72,8-24.88,20,0-.75-.06-1.5-.06-2.24C4.5,33.15,16.14,19,30.46,19c.33,0,.67,0,1,0a.6.6,0,0,0,.37-.14A.51.51,0,0,0,32,18.5V9.71L50.06,25.88Z"/><path d="M30.46,22c-8.23,0-15.87,5.55-20,14.47a.5.5,0,0,0,.16.61.54.54,0,0,0,.3.1.51.51,0,0,0,.33-.13,26.83,26.83,0,0,1,18.15-7.23c.74,0,1.53,0,2.35.11l3.18.29v4a.5.5,0,0,0,.3.45.51.51,0,0,0,.54-.08l9.33-8.35a.51.51,0,0,0,0-.74l-9.33-8.34a.51.51,0,0,0-.54-.09.51.51,0,0,0-.3.46v4.59L31.34,22Zm5,1.18a.5.5,0,0,0,.37-.14.48.48,0,0,0,.15-.36v-4l8.08,7.22L36,33.11V29.74a.49.49,0,0,0-.45-.5l-3.64-.33c-.85-.08-1.67-.12-2.44-.12A27.46,27.46,0,0,0,12.51,34.7C16.6,27.41,23.31,23,30.46,23c.28,0,.56,0,.84,0Z"/></g></svg>