<svg xmlns="http://www.w3.org/2000/svg" fill-rule="evenodd" clip-rule="evenodd" image-rendering="optimizeQuality" shape-rendering="geometricPrecision" text-rendering="geometricPrecision" viewBox="0 0 6827 6827" id="Videoplayer">
  <path fill="#000000" d="M1630 853h3566c214 0 408 87 549 228s228 335 228 549v3566c0 214-87 408-228 549s-335 228-549 228H1630c-214 0-408-87-549-228s-228-335-228-549V1630c0-214 87-408 228-549s335-228 549-228zm1188 1298 1550 1220c4 3 7 6 10 9 18 23 14 55-9 73L2820 4672c-9 8-21 13-34 13-29 0-52-23-52-52V2191c0-11 4-23 11-32 18-23 51-27 73-9z" class="color1a1a1a svgShape"></path>
</svg>
